<svg width="256" height="256" viewBox="0 0 256 256" fill="none" xmlns="http://www.w3.org/2000/svg">
<circle cx="128" cy="128" r="128" fill="#2B3241"/>
<rect x="53" y="74" width="125" height="125" rx="16" fill="#C2C8D6"/>
<rect x="96.3699" y="57" width="125" height="125" rx="16" transform="rotate(8.45077 96.3699 57)" fill="#F0F1F5"/>
<path d="M154.882 104.615L170.708 106.967L169.147 117.476L158.637 115.915L154.706 142.375C154.278 145.26 152.839 147.573 150.389 149.316C148.022 151.07 145.397 151.733 142.512 151.305C139.627 150.876 137.307 149.478 135.552 147.111C133.798 144.745 133.135 142.119 133.563 139.234C133.992 136.349 135.389 134.029 137.756 132.274C140.135 130.437 142.767 129.733 145.652 130.162C147.384 130.419 149.082 131.177 150.749 132.435L154.882 104.615Z" fill="#2B3241"/>
</svg>
